<?xml version="1.0" standalone="no"?>
<!DOCTYPE svg PUBLIC "-//W3C//DTD SVG 20010904//EN"
 "http://www.w3.org/TR/2001/REC-SVG-20010904/DTD/svg10.dtd">
<svg version="1.0" xmlns="http://www.w3.org/2000/svg"
 width="359.000000pt" height="359.000000pt" viewBox="0 0 359.000000 359.000000"
 preserveAspectRatio="xMidYMid meet">
<metadata>
Created by potrace 1.14, written by Peter Selinger 2001-2017
</metadata>
<g transform="translate(0.000000,359.000000) scale(0.100000,-0.100000)"
fill="#000000" stroke="none">
<path d="M758 2734 c-56 -30 -63 -59 -61 -270 1 -104 7 -202 12 -217 25 -65
142 -90 199 -42 35 30 55 73 50 111 -3 26 -7 29 -38 29 -31 0 -36 -4 -46 -35
-15 -44 -47 -60 -74 -35 -18 17 -20 31 -20 179 0 89 3 171 6 183 7 27 52 40
71 20 8 -7 15 -27 16 -43 2 -27 6 -29 45 -32 l42 -3 0 36 c0 41 -23 91 -54
117 -26 22 -110 23 -148 2z"/>
<path d="M1112 2733 c-5 -10 -26 -92 -46 -183 -20 -91 -46 -204 -57 -252 -12
-49 -19 -95 -15 -103 8 -21 63 -19 74 3 6 9 13 36 17 60 7 45 8 45 70 42 47
-2 51 -7 59 -71 l7 -49 39 0 c34 0 40 3 40 21 0 20 -88 428 -111 512 -8 32
-14 37 -39 37 -18 0 -33 -7 -38 -17z m53 -256 c9 -43 13 -82 10 -87 -3 -6 -20
-10 -37 -10 -26 0 -29 3 -25 23 3 12 11 53 18 90 6 37 13 67 15 65 1 -2 10
-38 19 -81z"/>
<path d="M1352 2738 c-9 -9 -12 -86 -12 -285 l0 -273 33 0 c52 0 57 12 57 133
0 105 1 108 21 105 18 -2 27 -20 51 -98 45 -146 42 -140 88 -140 25 0 40 5 40
13 0 6 -18 64 -39 127 l-39 115 23 25 c48 52 56 101 32 192 -19 74 -59 98
-162 98 -50 0 -86 -5 -93 -12z m164 -89 c16 -13 19 -100 4 -129 -11 -20 -50
-33 -74 -24 -13 5 -16 22 -16 83 0 43 3 80 6 84 9 9 64 0 80 -14z"/>
<path d="M1687 2743 c-4 -3 -7 -132 -7 -285 l0 -278 39 0 38 0 5 68 c3 37 4
109 3 160 -2 52 0 90 4 85 4 -4 20 -48 35 -98 45 -142 70 -151 105 -35 43 142
45 140 51 -25 l5 -150 40 0 40 0 2 264 c1 159 -2 271 -8 283 -6 11 -21 18 -40
18 -35 0 -44 -18 -100 -187 -18 -57 -36 -99 -40 -95 -3 4 -26 66 -50 137 -23
72 -48 133 -54 137 -13 10 -59 10 -68 1z"/>
<path d="M2125 2738 c-3 -7 -4 -135 -3 -283 l3 -270 40 0 40 0 0 280 0 280
-38 3 c-24 2 -39 -1 -42 -10z"/>
<path d="M2280 2728 c-3 -170 1 -531 5 -539 4 -5 22 -9 41 -9 l34 0 0 152 c0
109 3 149 11 141 6 -6 31 -68 55 -139 25 -71 52 -135 61 -141 9 -7 29 -13 45
-13 l28 0 0 273 c0 199 -3 276 -12 285 -16 16 -68 15 -68 0 -1 -7 -1 -80 0
-163 1 -88 -3 -146 -8 -140 -5 6 -30 73 -57 150 -26 77 -52 146 -57 153 -6 6
-26 12 -44 12 -28 0 -34 -4 -34 -22z"/>
<path d="M2635 2737 c-3 -7 -4 -134 -3 -282 l3 -270 95 -3 c131 -4 140 -1 140
48 l0 40 -80 0 -81 0 3 78 3 77 68 3 68 3 -3 37 -3 37 -65 5 -65 5 0 75 0 75
78 3 77 3 0 39 0 40 -115 0 c-84 0 -117 -3 -120 -13z"/>
<path d="M1081 2006 c-32 -18 -50 -53 -51 -99 0 -55 23 -92 74 -116 24 -12 50
-28 56 -36 17 -20 8 -86 -12 -99 -23 -14 -52 3 -56 33 -4 27 -24 36 -50 22
-49 -26 16 -121 83 -121 76 0 109 41 109 137 0 59 -18 87 -74 110 -47 20 -70
42 -70 68 0 52 62 63 79 14 9 -25 15 -30 38 -27 25 3 28 7 26 38 -3 69 -88
112 -152 76z"/>
<path d="M1283 2008 c-9 -15 -12 -393 -3 -408 4 -7 39 -10 91 -8 l84 3 0 30
c0 29 -2 30 -45 32 -25 1 -51 2 -58 2 -9 1 -12 17 -10 59 l3 57 48 3 c82 5 74
62 -9 62 l-44 0 0 49 c0 28 5 53 11 57 6 4 32 8 58 9 44 1 46 3 46 31 l0 29
-82 3 c-58 2 -84 -1 -90 -10z"/>
<path d="M1494 2007 c-2 -7 -3 -102 -2 -212 l3 -200 30 0 30 0 5 110 5 110 25
-72 c33 -98 51 -98 82 -1 l23 72 5 -103 c5 -109 16 -132 54 -118 14 6 16 31
16 211 0 133 -4 207 -11 211 -5 4 -20 4 -33 1 -18 -4 -29 -24 -56 -106 -18
-55 -36 -100 -39 -100 -4 0 -17 33 -29 73 -38 120 -48 137 -77 137 -14 0 -28
-6 -31 -13z"/>
<path d="M1825 2009 c-3 -8 -4 -104 -3 -214 l3 -200 42 -3 c64 -5 116 13 136
47 21 35 22 116 3 153 -12 23 -12 29 0 45 16 22 18 93 3 126 -16 34 -43 47
-114 54 -51 5 -66 3 -70 -8z m113 -65 c43 -30 21 -99 -30 -92 -20 3 -23 8 -22
44 2 64 13 75 52 48z m6 -170 c9 -9 16 -32 16 -54 0 -31 -5 -43 -26 -56 -18
-12 -28 -14 -36 -6 -10 10 -18 108 -10 125 6 13 40 8 56 -9z"/>
<path d="M2080 2013 c0 -5 -1 -64 -1 -133 -1 -69 -1 -162 0 -208 l1 -83 28 3
c27 3 27 3 30 91 2 75 5 88 19 85 10 -2 26 -31 42 -81 15 -43 33 -82 41 -87
23 -15 50 -12 50 5 0 17 -37 131 -50 154 -4 9 1 27 15 48 55 79 33 182 -42
202 -44 13 -133 15 -133 4z m134 -79 c10 -26 7 -79 -6 -92 -7 -7 -25 -12 -40
-12 -28 0 -28 1 -28 60 l0 60 34 0 c22 0 36 -6 40 -16z"/>
<path d="M2381 1958 c-7 -35 -17 -79 -22 -98 -4 -19 -15 -71 -25 -115 -9 -44
-20 -93 -25 -109 -10 -33 2 -48 36 -44 14 2 21 13 26 41 7 46 11 50 50 50 33
0 49 -15 49 -49 0 -11 5 -25 12 -32 14 -14 44 -16 52 -3 3 4 -8 69 -24 142
-16 74 -35 159 -41 189 -16 74 -26 90 -52 90 -20 0 -25 -8 -36 -62z m59 -211
c-9 -10 -41 -6 -41 6 0 18 13 103 18 117 3 8 11 -14 18 -50 7 -36 9 -69 5 -73z"/>
<path d="M227 1503 c-4 -3 -7 -161 -7 -350 l0 -343 108 0 c180 0 217 36 217
207 0 98 -1 104 -27 130 l-28 27 28 29 c25 26 27 34 27 115 0 76 -3 91 -24
121 -37 51 -90 71 -197 71 -50 0 -94 -3 -97 -7z m203 -113 c15 -15 20 -33 20
-73 0 -69 -15 -88 -73 -94 l-47 -6 0 97 0 96 40 0 c27 0 47 -7 60 -20z m0
-280 c35 -35 25 -166 -14 -192 -6 -4 -28 -8 -48 -8 l-38 0 0 110 0 110 40 0
c27 0 47 -7 60 -20z"/>
<path d="M640 1161 c0 -193 3 -351 8 -352 42 -6 79 -5 88 2 7 6 11 59 11 146
l0 138 29 0 c28 0 29 -3 69 -130 22 -71 43 -137 46 -145 5 -11 19 -14 58 -12
28 2 51 7 51 12 0 4 -23 74 -50 155 l-51 148 25 21 c45 39 58 80 54 177 -3 94
-15 121 -72 163 -23 18 -45 22 -147 25 l-119 3 0 -351z m216 235 c16 -12 19
-27 19 -90 0 -86 -9 -100 -67 -109 -56 -9 -63 4 -61 114 1 52 2 95 2 97 3 9
91 -1 107 -12z"/>
<path d="M1140 1491 c-19 -10 -45 -36 -58 -57 -22 -38 -22 -45 -20 -286 3
-278 4 -279 84 -325 72 -42 177 -19 225 48 24 34 24 36 24 279 0 280 -3 296
-70 335 -52 31 -134 34 -185 6z m136 -102 c17 -19 19 -38 18 -237 -1 -213 -1
-215 -24 -234 -28 -23 -66 -17 -92 12 -14 17 -16 50 -17 223 -2 193 -1 205 19
230 26 33 69 36 96 6z"/>
<path d="M1554 1485 c-71 -42 -76 -64 -72 -342 3 -227 4 -243 24 -270 75 -102
236 -92 292 17 21 42 22 56 22 250 -1 220 -9 282 -43 318 -54 59 -151 70 -223
27z m139 -89 c20 -21 28 -126 22 -306 -4 -142 -7 -156 -26 -172 -29 -25 -55
-22 -84 7 -25 24 -25 24 -25 235 0 197 1 211 20 230 23 23 72 26 93 6z"/>
<path d="M1905 1498 c-3 -7 -4 -166 -3 -353 l3 -340 29 -3 c15 -2 39 -1 52 2
24 6 24 8 23 109 -2 88 1 108 20 145 12 23 25 42 29 42 4 0 30 -64 57 -141 28
-77 54 -143 58 -146 10 -6 96 -8 102 -2 2 3 -32 98 -76 211 l-80 206 65 131
c37 72 66 135 66 141 0 17 -86 12 -101 -7 -8 -9 -42 -79 -76 -157 l-62 -141
-3 155 -3 155 -48 3 c-32 2 -49 -1 -52 -10z"/>
<path d="M2327 1504 c-4 -4 -7 -159 -7 -345 0 -282 2 -339 14 -346 8 -4 76 -7
150 -5 135 3 136 3 142 28 3 13 3 35 0 49 -6 24 -8 25 -101 25 l-95 0 -1 283
c-1 155 -2 289 -3 297 -1 10 -15 16 -46 18 -25 2 -49 0 -53 -4z"/>
<path d="M2560 1499 c0 -6 29 -99 65 -205 l65 -194 0 -140 c0 -127 2 -140 19
-150 26 -14 64 -13 79 2 8 8 12 58 12 158 l0 147 65 189 c36 104 65 192 65
197 0 4 -25 7 -55 7 l-54 0 -11 -42 c-5 -24 -15 -56 -21 -73 -6 -16 -15 -48
-19 -70 -5 -22 -13 -51 -18 -65 -9 -23 -12 -18 -32 50 -12 41 -30 102 -40 135
l-18 60 -51 3 c-34 2 -51 -1 -51 -9z"/>
<path d="M2985 1500 c-8 -13 -15 -581 -8 -642 5 -43 8 -47 38 -52 65 -13 64
-15 67 202 l3 197 44 -120 c24 -66 56 -154 70 -195 24 -69 28 -75 59 -81 18
-4 42 -4 53 -2 19 5 19 16 17 352 l-3 346 -49 0 -49 0 2 -192 c1 -106 -2 -193
-7 -193 -4 0 -32 69 -62 153 -86 243 -82 237 -129 237 -22 0 -43 -5 -46 -10z"/>
</g>
</svg>
